<svg width="37" height="20" viewBox="0 0 37 20" fill="none" xmlns="http://www.w3.org/2000/svg">
<g clip-path="url(#clip0_1_2)">
<rect width="37" height="20" fill="white"/>
<path d="M20 4H18V2H2V18H18V16H20V20H0V0H20V4Z" fill="black"/>
<path d="M7.324 7.372C8.18 7.372 9.064 7.492 9.976 7.732V14.68L7.924 14.764V13.18C7.924 12.876 7.984 12.52 8.104 12.112L8.068 12.088C7.868 12.448 7.608 12.704 7.288 12.856C6.968 13 6.668 13.072 6.388 13.072C5.764 13.072 5.26 12.852 4.876 12.412C4.492 11.964 4.3 11.292 4.3 10.396C4.3 9.796 4.376 9.252 4.528 8.764C4.68 8.276 4.864 7.96 5.08 7.816C5.312 7.664 5.628 7.552 6.028 7.48C6.428 7.408 6.86 7.372 7.324 7.372ZM7.252 11.404C7.444 11.404 7.668 11.368 7.924 11.296V8.788C7.828 8.772 7.684 8.756 7.492 8.74C7.42 8.732 7.312 8.728 7.168 8.728C6.856 8.728 6.68 8.76 6.64 8.824C6.568 8.936 6.512 9.14 6.472 9.436C6.432 9.716 6.412 9.988 6.412 10.252C6.412 10.668 6.48 10.964 6.616 11.14C6.752 11.316 6.964 11.404 7.252 11.404ZM14.369 7.36C14.473 7.36 14.581 7.372 14.693 7.396C14.813 7.42 14.901 7.448 14.957 7.48C14.957 7.656 14.937 7.948 14.897 8.356C14.857 8.756 14.821 9.04 14.789 9.208C14.709 9.2 14.561 9.196 14.345 9.196C13.841 9.196 13.393 9.224 13.001 9.28V13H10.949V7.48H12.665L12.905 8.368H12.917C13.149 8.064 13.397 7.82 13.661 7.636C13.925 7.452 14.161 7.36 14.369 7.36ZM18.8439 11.56C19.0439 11.56 19.4159 11.54 19.9599 11.5C20.0319 11.5 20.1639 11.492 20.3559 11.476L20.5359 12.712C19.9199 13 19.1199 13.144 18.1359 13.144C17.2159 13.144 16.5079 12.912 16.0119 12.448C15.5239 11.984 15.2799 11.284 15.2799 10.348C15.2799 9.868 15.3399 9.404 15.4599 8.956C15.5879 8.508 15.7319 8.196 15.8919 8.02C16.0599 7.844 16.3719 7.692 16.8279 7.564C17.2839 7.436 17.7359 7.372 18.1839 7.372C18.9039 7.372 19.4439 7.5 19.8039 7.756C20.1639 8.012 20.3999 8.368 20.5119 8.824C20.6239 9.272 20.6799 9.876 20.6799 10.636C20.1359 10.668 19.6039 10.684 19.0839 10.684H17.3799C17.3799 10.94 17.4319 11.132 17.5359 11.26C17.6479 11.388 17.8039 11.472 18.0039 11.512C18.2039 11.544 18.4839 11.56 18.8439 11.56ZM17.4999 8.8C17.4519 8.824 17.4159 8.928 17.3919 9.112C17.3679 9.296 17.3519 9.504 17.3439 9.736H17.9679C18.3439 9.736 18.6159 9.732 18.7839 9.724C18.7839 9.34 18.7279 9.068 18.6159 8.908C18.5119 8.748 18.3279 8.668 18.0639 8.668C17.8479 8.668 17.6599 8.712 17.4999 8.8ZM24.6902 13L24.4982 12.244C24.1302 12.844 23.6182 13.144 22.9622 13.144C22.4262 13.144 21.9862 12.996 21.6422 12.7C21.3062 12.396 21.1382 11.972 21.1382 11.428C21.1382 11.092 21.2342 10.8 21.4262 10.552C21.6262 10.296 21.8982 10.116 22.2422 10.012C22.6902 9.884 23.3822 9.812 24.3182 9.796C24.3182 9.268 24.2942 8.988 24.2462 8.956C24.2062 8.924 24.0782 8.908 23.8622 8.908C23.7262 8.908 23.5382 8.916 23.2982 8.932C22.9142 8.948 22.3942 8.992 21.7382 9.064C21.6742 8.632 21.6262 8.168 21.5942 7.672C22.0182 7.584 22.4622 7.512 22.9262 7.456C23.3902 7.392 23.8062 7.36 24.1742 7.36C24.8142 7.36 25.2942 7.468 25.6142 7.684C25.9342 7.892 26.1422 8.168 26.2382 8.512C26.3342 8.856 26.3782 9.292 26.3702 9.82L26.3582 11.584L26.3942 13H24.6902ZM23.6582 11.8C23.8662 11.8 24.0862 11.76 24.3182 11.68V10.792H24.2222C23.6302 10.792 23.3022 10.824 23.2382 10.888C23.1982 10.928 23.1662 10.988 23.1422 11.068C23.1262 11.148 23.1182 11.224 23.1182 11.296C23.1182 11.488 23.1622 11.62 23.2502 11.692C23.3382 11.764 23.4742 11.8 23.6582 11.8ZM29.8407 10.732C29.8407 10.876 29.8447 11.028 29.8527 11.188C29.8607 11.34 29.8847 11.436 29.9247 11.476C29.9807 11.532 30.1767 11.56 30.5127 11.56L30.9207 11.548C30.9927 11.932 31.0287 12.376 31.0287 12.88C30.8767 12.936 30.6527 12.988 30.3567 13.036C30.0687 13.084 29.7927 13.108 29.5287 13.108C28.9767 13.108 28.5487 12.988 28.2447 12.748C27.9487 12.5 27.8007 12.12 27.8007 11.608V8.656H26.9007V7.564L27.8007 7.48L28.3407 6.16L29.8407 6.076V7.48H31.1127V8.656H29.8407V10.732ZM35.0744 11.56C35.2744 11.56 35.6464 11.54 36.1904 11.5C36.2624 11.5 36.3944 11.492 36.5864 11.476L36.7664 12.712C36.1504 13 35.3504 13.144 34.3664 13.144C33.4464 13.144 32.7384 12.912 32.2424 12.448C31.7544 11.984 31.5104 11.284 31.5104 10.348C31.5104 9.868 31.5704 9.404 31.6904 8.956C31.8184 8.508 31.9624 8.196 32.1224 8.02C32.2904 7.844 32.6024 7.692 33.0584 7.564C33.5144 7.436 33.9664 7.372 34.4144 7.372C35.1344 7.372 35.6744 7.5 36.0344 7.756C36.3944 8.012 36.6304 8.368 36.7424 8.824C36.8544 9.272 36.9104 9.876 36.9104 10.636C36.3664 10.668 35.8344 10.684 35.3144 10.684H33.6104C33.6104 10.94 33.6624 11.132 33.7664 11.26C33.8784 11.388 34.0344 11.472 34.2344 11.512C34.4344 11.544 34.7144 11.56 35.0744 11.56ZM33.7304 8.8C33.6824 8.824 33.6464 8.928 33.6224 9.112C33.5984 9.296 33.5824 9.504 33.5744 9.736H34.1984C34.5744 9.736 34.8464 9.732 35.0144 9.724C35.0144 9.34 34.9584 9.068 34.8464 8.908C34.7424 8.748 34.5584 8.668 34.2944 8.668C34.0784 8.668 33.8904 8.712 33.7304 8.8Z" fill="black"/>
</g>
<defs>
<clipPath id="clip0_1_2">
<rect width="37" height="20" fill="white"/>
</clipPath>
</defs>
</svg>
