<svg width="37" height="20" viewBox="0 0 37 20" fill="none" xmlns="http://www.w3.org/2000/svg">
<rect width="37" height="20" fill="white"/>
<path d="M20 4H18V2H2V18H18V16H20V20H0V0H20V4Z" fill="black"/>
<path d="M7.324 7.372C8.18 7.372 9.064 7.492 9.976 7.732V14.68L7.924 14.764V13.18C7.924 12.876 7.984 12.52 8.104 12.112L8.068 12.088C7.868 12.448 7.608 12.704 7.288 12.856C6.968 13 6.668 13.072 6.388 13.072C5.764 13.072 5.26 12.852 4.876 12.412C4.492 11.964 4.3 11.292 4.3 10.396C4.3 9.796 4.376 9.252 4.528 8.764C4.68 8.276 4.864 7.96 5.08 7.816C5.312 7.664 5.628 7.552 6.028 7.48C6.428 7.408 6.86 7.372 7.324 7.372ZM7.252 11.404C7.444 11.404 7.668 11.368 7.924 11.296V8.788C7.828 8.772 7.684 8.756 7.492 8.74C7.42 8.732 7.312 8.728 7.168 8.728C6.856 8.728 6.68 8.76 6.64 8.824C6.568 8.936 6.512 9.14 6.472 9.436C6.432 9.716 6.412 9.988 6.412 10.252C6.412 10.668 6.48 10.964 6.616 11.14C6.752 11.316 6.964 11.404 7.252 11.404ZM14.369 7.36C14.473 7.36 14.581 7.372 14.693 7.396C14.813 7.42 14.901 7.448 14.957 7.48C14.957 7.656 14.937 7.948 14.897 8.356C14.857 8.756 14.821 9.04 14.789 9.208C14.709 9.2 14.561 9.196 14.345 9.196C13.841 9.196 13.393 9.224 13.001 9.28V13H10.949V7.48H12.665L12.905 8.368H12.917C13.149 8.064 13.397 7.82 13.661 7.636C13.925 7.452 14.161 7.36 14.369 7.36ZM18.4206 13L18.2286 12.244C17.8606 12.844 17.3486 13.144 16.6926 13.144C16.1566 13.144 15.7166 12.996 15.3726 12.7C15.0366 12.396 14.8686 11.972 14.8686 11.428C14.8686 11.092 14.9646 10.8 15.1566 10.552C15.3566 10.296 15.6286 10.116 15.9726 10.012C16.4206 9.884 17.1126 9.812 18.0486 9.796C18.0486 9.268 18.0246 8.988 17.9766 8.956C17.9366 8.924 17.8086 8.908 17.5926 8.908C17.4566 8.908 17.2686 8.916 17.0286 8.932C16.6446 8.948 16.1246 8.992 15.4686 9.064C15.4046 8.632 15.3566 8.168 15.3246 7.672C15.7486 7.584 16.1926 7.512 16.6566 7.456C17.1206 7.392 17.5366 7.36 17.9046 7.36C18.5446 7.36 19.0246 7.468 19.3446 7.684C19.6646 7.892 19.8726 8.168 19.9686 8.512C20.0646 8.856 20.1086 9.292 20.1006 9.82L20.0886 11.584L20.1246 13H18.4206ZM17.3886 11.8C17.5966 11.8 17.8166 11.76 18.0486 11.68V10.792H17.9526C17.3606 10.792 17.0326 10.824 16.9686 10.888C16.9286 10.928 16.8966 10.988 16.8726 11.068C16.8566 11.148 16.8486 11.224 16.8486 11.296C16.8486 11.488 16.8926 11.62 16.9806 11.692C17.0686 11.764 17.2046 11.8 17.3886 11.8ZM23.6432 6.856C23.5872 6.912 23.5592 7.084 23.5592 7.372V7.48H24.8312V8.656H23.5592V13H21.5072V8.656H20.6072V7.588L21.5072 7.48V7.3C21.5072 6.948 21.5552 6.612 21.6512 6.292C21.7472 5.972 21.8352 5.78 21.9152 5.716C22.1632 5.508 22.6912 5.404 23.4992 5.404C23.9392 5.404 24.4312 5.436 24.9752 5.5C24.9752 5.596 24.9592 5.788 24.9272 6.076C24.9032 6.364 24.8792 6.608 24.8552 6.808L24.3392 6.796C23.9152 6.796 23.6832 6.816 23.6432 6.856ZM27.8954 10.732C27.8954 10.876 27.8994 11.028 27.9074 11.188C27.9154 11.34 27.9394 11.436 27.9794 11.476C28.0354 11.532 28.2314 11.56 28.5674 11.56L28.9754 11.548C29.0474 11.932 29.0834 12.376 29.0834 12.88C28.9314 12.936 28.7074 12.988 28.4114 13.036C28.1234 13.084 27.8474 13.108 27.5834 13.108C27.0314 13.108 26.6034 12.988 26.2994 12.748C26.0034 12.5 25.8554 12.12 25.8554 11.608V8.656H24.9554V7.564L25.8554 7.48L26.3954 6.16L27.8954 6.076V7.48H29.1674V8.656H27.8954V10.732Z" fill="black"/>
</svg>
