<svg width="43" height="26" viewBox="0 0 43 26" fill="none" xmlns="http://www.w3.org/2000/svg">
<rect width="43" height="26" fill="white"/>
<path d="M23 7H21V5H5V21H21V19H23V23H3V3H23V7Z" fill="black"/>
<path d="M10.324 10.372C11.18 10.372 12.064 10.492 12.976 10.732V17.68L10.924 17.764V16.18C10.924 15.876 10.984 15.52 11.104 15.112L11.068 15.088C10.868 15.448 10.608 15.704 10.288 15.856C9.968 16 9.668 16.072 9.388 16.072C8.764 16.072 8.26 15.852 7.876 15.412C7.492 14.964 7.3 14.292 7.3 13.396C7.3 12.796 7.376 12.252 7.528 11.764C7.68 11.276 7.864 10.96 8.08 10.816C8.312 10.664 8.628 10.552 9.028 10.48C9.428 10.408 9.86 10.372 10.324 10.372ZM10.252 14.404C10.444 14.404 10.668 14.368 10.924 14.296V11.788C10.828 11.772 10.684 11.756 10.492 11.74C10.42 11.732 10.312 11.728 10.168 11.728C9.856 11.728 9.68 11.76 9.64 11.824C9.568 11.936 9.512 12.14 9.472 12.436C9.432 12.716 9.412 12.988 9.412 13.252C9.412 13.668 9.48 13.964 9.616 14.14C9.752 14.316 9.964 14.404 10.252 14.404ZM17.369 10.36C17.473 10.36 17.581 10.372 17.693 10.396C17.813 10.42 17.901 10.448 17.957 10.48C17.957 10.656 17.937 10.948 17.897 11.356C17.857 11.756 17.821 12.04 17.789 12.208C17.709 12.2 17.561 12.196 17.345 12.196C16.841 12.196 16.393 12.224 16.001 12.28V16H13.949V10.48H15.665L15.905 11.368H15.917C16.149 11.064 16.397 10.82 16.661 10.636C16.925 10.452 17.161 10.36 17.369 10.36ZM21.8439 14.56C22.0439 14.56 22.4159 14.54 22.9599 14.5C23.0319 14.5 23.1639 14.492 23.3559 14.476L23.5359 15.712C22.9199 16 22.1199 16.144 21.1359 16.144C20.2159 16.144 19.5079 15.912 19.0119 15.448C18.5239 14.984 18.2799 14.284 18.2799 13.348C18.2799 12.868 18.3399 12.404 18.4599 11.956C18.5879 11.508 18.7319 11.196 18.8919 11.02C19.0599 10.844 19.3719 10.692 19.8279 10.564C20.2839 10.436 20.7359 10.372 21.1839 10.372C21.9039 10.372 22.4439 10.5 22.8039 10.756C23.1639 11.012 23.3999 11.368 23.5119 11.824C23.6239 12.272 23.6799 12.876 23.6799 13.636C23.1359 13.668 22.6039 13.684 22.0839 13.684H20.3799C20.3799 13.94 20.4319 14.132 20.5359 14.26C20.6479 14.388 20.8039 14.472 21.0039 14.512C21.2039 14.544 21.4839 14.56 21.8439 14.56ZM20.4999 11.8C20.4519 11.824 20.4159 11.928 20.3919 12.112C20.3679 12.296 20.3519 12.504 20.3439 12.736H20.9679C21.3439 12.736 21.6159 12.732 21.7839 12.724C21.7839 12.34 21.7279 12.068 21.6159 11.908C21.5119 11.748 21.3279 11.668 21.0639 11.668C20.8479 11.668 20.6599 11.712 20.4999 11.8ZM27.6902 16L27.4982 15.244C27.1302 15.844 26.6182 16.144 25.9622 16.144C25.4262 16.144 24.9862 15.996 24.6422 15.7C24.3062 15.396 24.1382 14.972 24.1382 14.428C24.1382 14.092 24.2342 13.8 24.4262 13.552C24.6262 13.296 24.8982 13.116 25.2422 13.012C25.6902 12.884 26.3822 12.812 27.3182 12.796C27.3182 12.268 27.2942 11.988 27.2462 11.956C27.2062 11.924 27.0782 11.908 26.8622 11.908C26.7262 11.908 26.5382 11.916 26.2982 11.932C25.9142 11.948 25.3942 11.992 24.7382 12.064C24.6742 11.632 24.6262 11.168 24.5942 10.672C25.0182 10.584 25.4622 10.512 25.9262 10.456C26.3902 10.392 26.8062 10.36 27.1742 10.36C27.8142 10.36 28.2942 10.468 28.6142 10.684C28.9342 10.892 29.1422 11.168 29.2382 11.512C29.3342 11.856 29.3782 12.292 29.3702 12.82L29.3582 14.584L29.3942 16H27.6902ZM26.6582 14.8C26.8662 14.8 27.0862 14.76 27.3182 14.68V13.792H27.2222C26.6302 13.792 26.3022 13.824 26.2382 13.888C26.1982 13.928 26.1662 13.988 26.1422 14.068C26.1262 14.148 26.1182 14.224 26.1182 14.296C26.1182 14.488 26.1622 14.62 26.2502 14.692C26.3382 14.764 26.4742 14.8 26.6582 14.8ZM32.8407 13.732C32.8407 13.876 32.8447 14.028 32.8527 14.188C32.8607 14.34 32.8847 14.436 32.9247 14.476C32.9807 14.532 33.1767 14.56 33.5127 14.56L33.9207 14.548C33.9927 14.932 34.0287 15.376 34.0287 15.88C33.8767 15.936 33.6527 15.988 33.3567 16.036C33.0687 16.084 32.7927 16.108 32.5287 16.108C31.9767 16.108 31.5487 15.988 31.2447 15.748C30.9487 15.5 30.8007 15.12 30.8007 14.608V11.656H29.9007V10.564L30.8007 10.48L31.3407 9.16L32.8407 9.076V10.48H34.1127V11.656H32.8407V13.732ZM38.0744 14.56C38.2744 14.56 38.6464 14.54 39.1904 14.5C39.2624 14.5 39.3944 14.492 39.5864 14.476L39.7664 15.712C39.1504 16 38.3504 16.144 37.3664 16.144C36.4464 16.144 35.7384 15.912 35.2424 15.448C34.7544 14.984 34.5104 14.284 34.5104 13.348C34.5104 12.868 34.5704 12.404 34.6904 11.956C34.8184 11.508 34.9624 11.196 35.1224 11.02C35.2904 10.844 35.6024 10.692 36.0584 10.564C36.5144 10.436 36.9664 10.372 37.4144 10.372C38.1344 10.372 38.6744 10.5 39.0344 10.756C39.3944 11.012 39.6304 11.368 39.7424 11.824C39.8544 12.272 39.9104 12.876 39.9104 13.636C39.3664 13.668 38.8344 13.684 38.3144 13.684H36.6104C36.6104 13.94 36.6624 14.132 36.7664 14.26C36.8784 14.388 37.0344 14.472 37.2344 14.512C37.4344 14.544 37.7144 14.56 38.0744 14.56ZM36.7304 11.8C36.6824 11.824 36.6464 11.928 36.6224 12.112C36.5984 12.296 36.5824 12.504 36.5744 12.736H37.1984C37.5744 12.736 37.8464 12.732 38.0144 12.724C38.0144 12.34 37.9584 12.068 37.8464 11.908C37.7424 11.748 37.5584 11.668 37.2944 11.668C37.0784 11.668 36.8904 11.712 36.7304 11.8Z" fill="black"/>
</svg>
